<?xml version="1.0" encoding="utf-8"?>
<!-- Generator: Adobe Illustrator 23.0.6, SVG Export Plug-In . SVG Version: 6.00 Build 0)  -->
<svg version="1.1" id="Layer_1" xmlns="http://www.w3.org/2000/svg" xmlns:xlink="http://www.w3.org/1999/xlink" x="0px" y="0px"
	 viewBox="0 0 640 480" style="enable-background:new 0 0 640 480;" xml:space="preserve">
<style type="text/css">
	.st0{fill:url(#SVGID_1_);}
	.st1{fill:url(#SVGID_2_);}
	.st2{fill:url(#SVGID_3_);}
</style>
<g>
	<path d="M272.63,244.28h-9.78v64.46h-5.62v-64.46h-9.86v-6.36h25.25V244.28z"/>
	<path d="M304.22,308.74h-5.29v-1.4c-2.13,0.38-4.26,0.74-6.38,1.09c-2.64,0.41-4.76,0.62-6.34,0.62c-2.94,0-4.4-1.86-4.4-5.58
		v-14.32c0-3.86,1.52-5.79,4.57-5.79h12.65v-13.13h-11.56v8.58h-5.21v-8.48c0-3.9,1.51-5.84,4.53-5.84h12.93
		c3.02,0,4.53,1.95,4.53,5.84V308.74z M299.01,302.49v-13.75h-12v14.06L299.01,302.49z"/>
	<path d="M342.24,297.94c0,3.1-0.8,5.68-2.38,7.73c-1.59,2.05-3.58,3.08-5.98,3.08h-14.22v-70.82h5.37v27.97
		c2.13-0.34,4.26-0.69,6.38-1.03c2.69-0.45,4.81-0.67,6.34-0.67c2.99,0,4.49,1.88,4.49,5.64V297.94z M336.86,296.9v-26.26
		l-11.84,0.41v31.63h7.44C335.4,302.69,336.86,300.76,336.86,296.9z"/>
	<path d="M371.77,308.74h-7.64c-3.02,0-4.53-1.95-4.53-5.84v-32.36h-4.73v-6.05h4.73v-15.67h5.29v15.67h6.87v6.05h-6.87v32.15h6.87
		V308.74z"/>
	<path d="M390.96,256.07h-5.46v-7.25h5.46V256.07z M390.88,308.74h-5.29v-44.25h5.29V308.74z"/>
	<path d="M446.15,308.74h-5.37v-38.1l-11.72,0.41v37.68h-5.33v-38.1L412,271.06v37.68h-5.37v-44.25H412v1.4
		c2.1-0.34,4.2-0.71,6.3-1.09c2.56-0.41,4.67-0.62,6.34-0.62c1.64,0,2.86,0.64,3.64,1.91c2.26-0.38,4.51-0.78,6.75-1.19
		c2.94-0.48,5.16-0.72,6.67-0.72c2.96,0,4.44,1.88,4.44,5.64V308.74z"/>
	<path d="M467.11,308.74h-5.29v-44.25h5.29V308.74z M467.19,256.07h-5.46v-7.25h5.46V256.07z"/>
	<path d="M501.7,308.74h-20.69v-3.15l14.35-34.94H482.5v-6.15h19.19v3.21l-14.39,34.89h14.39V308.74z"/>
	<path d="M537.94,302.9c0,3.9-1.51,5.84-4.53,5.84h-12.93c-3.02,0-4.53-1.95-4.53-5.84v-32.56c0-3.9,1.51-5.84,4.53-5.84h12.93
		c3.02,0,4.53,1.95,4.53,5.84v16.08l-1.82,2.43h-14.95V303h11.56v-9.2h5.21V302.9z M532.72,283.36v-13.13h-11.56v13.13H532.72z"/>
</g>
<g>
	<linearGradient id="SVGID_1_" gradientUnits="userSpaceOnUse" x1="177.7632" y1="308.898" x2="177.7632" y2="171.1964">
		<stop  offset="0.055" style="stop-color:#FF0745"/>
		<stop  offset="0.5056" style="stop-color:#9E2C74"/>
		<stop  offset="0.913" style="stop-color:#0A2143"/>
	</linearGradient>
	<path class="st0" d="M203.32,171.2c-2.62,0-5.14,0.39-7.52,1.13c-8.07,2.46-14.42,8.81-16.94,16.88c-0.72,2.38-1.1,4.92-1.1,7.54
		v99.35c0,0.53-0.06,1.05-0.16,1.57c-0.36,2.9-1.63,5.53-3.6,7.5c-2.29,2.29-5.5,3.73-9.04,3.73c-0.86,0-1.69-0.08-2.51-0.25
		c-0.03,0-0.03,0-0.06,0c-5.83-1.22-10.2-6.36-10.2-12.54v-99.35c0-2.62,0.39-5.17,1.1-7.54c2.51-8.07,8.87-14.42,16.94-16.88
		c2.38-0.75,4.89-1.13,7.52-1.13H203.32z"/>
	<linearGradient id="SVGID_2_" gradientUnits="userSpaceOnUse" x1="163.8155" y1="235.0126" x2="163.8155" y2="196.8599">
		<stop  offset="0.055" style="stop-color:#FF0745"/>
		<stop  offset="0.5056" style="stop-color:#9E2C74"/>
		<stop  offset="0.962" style="stop-color:#0A2143"/>
	</linearGradient>
	<path class="st1" d="M152.2,235.01c0-3.92,0.39-7.71,1.13-11.27c2.46-12.1,8.81-21.63,16.88-25.39c1.66-0.75,3.41-1.25,5.21-1.49
		c-1.79,0.16-3.55,0.43-5.21,0.93c-8.07,2.51-14.42,8.87-16.88,16.94c-0.75,2.38-1.13,4.89-1.13,7.52V235.01z"/>
	<linearGradient id="SVGID_3_" gradientUnits="userSpaceOnUse" x1="227.2166" y1="196.7409" x2="102.707" y2="196.7409">
		<stop  offset="0.055" style="stop-color:#FF0745"/>
		<stop  offset="0.5056" style="stop-color:#9E2C74"/>
		<stop  offset="0.947" style="stop-color:#0A2143"/>
	</linearGradient>
	<path class="st2" d="M214.42,171.18c7.07,0,12.79,5.73,12.79,12.79v0c0,2.32-0.61,4.48-1.69,6.36c-0.11,0.19-0.22,0.36-0.33,0.52
		c-0.5,0.77-1.08,1.52-1.74,2.16c-0.55,0.58-1.19,1.11-1.88,1.57c-0.25,0.17-0.52,0.33-0.77,0.47c-0.47,0.28-0.91,0.5-1.41,0.69
		c-0.17,0.08-0.36,0.17-0.58,0.25c-0.19,0.06-0.39,0.14-0.58,0.19c-0.41,0.11-0.8,0.22-1.22,0.3c-0.19,0.06-0.39,0.08-0.58,0.11
		c-0.66,0.11-1.33,0.17-2.02,0.17h-37.33c-2.4,0.06-4.7,0.44-6.88,1.08c-8.07,2.54-14.42,8.87-16.88,16.97
		c-0.75,2.38-1.13,4.89-1.13,7.49v-25.53h-36.73c-3.51,0-6.71-1.44-9.04-3.76c-2.74-2.77-4.26-6.76-3.56-11.13
		c0.94-5.93,7.11-10.7,13.12-10.7L214.42,171.18z"/>
</g>
</svg>
